<mxfile host="app.diagrams.net" modified="2024-03-07T07:39:28.140Z" agent="Mozilla/5.0 (Windows NT 10.0; Win64; x64) AppleWebKit/537.36 (KHTML, like Gecko) Chrome/122.0.0.0 Safari/537.36" etag="28B4SgBghLKKePbMU5ZS" version="22.1.21" type="device">
  <diagram name="Seite-1" id="kcoCjrc7x7H8Z4cEgfcB">
    <mxGraphModel dx="1195" dy="728" grid="1" gridSize="10" guides="1" tooltips="1" connect="1" arrows="1" fold="1" page="1" pageScale="1" pageWidth="827" pageHeight="1169" math="0" shadow="0">
      <root>
        <mxCell id="0" />
        <mxCell id="1" parent="0" />
        <mxCell id="nMscobphGVdHo44HcNS7-1" value="" style="rounded=0;whiteSpace=wrap;html=1;" vertex="1" parent="1">
          <mxGeometry x="230" y="160" width="320" height="520" as="geometry" />
        </mxCell>
        <mxCell id="nMscobphGVdHo44HcNS7-2" value="Skillmatrix" style="text;html=1;strokeColor=none;fillColor=none;align=center;verticalAlign=middle;whiteSpace=wrap;rounded=0;" vertex="1" parent="1">
          <mxGeometry x="360" y="160" width="60" height="30" as="geometry" />
        </mxCell>
        <mxCell id="nMscobphGVdHo44HcNS7-3" value="Mitarbeiter" style="shape=umlActor;verticalLabelPosition=bottom;verticalAlign=top;html=1;outlineConnect=0;" vertex="1" parent="1">
          <mxGeometry x="100" y="390" width="30" height="60" as="geometry" />
        </mxCell>
        <mxCell id="nMscobphGVdHo44HcNS7-8" value="Administrator" style="shape=umlActor;verticalLabelPosition=bottom;verticalAlign=top;html=1;outlineConnect=0;" vertex="1" parent="1">
          <mxGeometry x="680" y="410" width="30" height="60" as="geometry" />
        </mxCell>
        <mxCell id="nMscobphGVdHo44HcNS7-9" value="CRUD von Mitarbeitern, Skillkategorien und Skills" style="ellipse;whiteSpace=wrap;html=1;" vertex="1" parent="1">
          <mxGeometry x="330" y="290" width="120" height="80" as="geometry" />
        </mxCell>
        <mxCell id="nMscobphGVdHo44HcNS7-11" value="" style="endArrow=classic;html=1;rounded=0;entryX=1;entryY=0.5;entryDx=0;entryDy=0;exitX=0.5;exitY=0.5;exitDx=0;exitDy=0;exitPerimeter=0;" edge="1" parent="1" source="nMscobphGVdHo44HcNS7-8" target="nMscobphGVdHo44HcNS7-9">
          <mxGeometry width="50" height="50" relative="1" as="geometry">
            <mxPoint x="280" y="310" as="sourcePoint" />
            <mxPoint x="330" y="260" as="targetPoint" />
          </mxGeometry>
        </mxCell>
        <mxCell id="nMscobphGVdHo44HcNS7-33" value="Skills und Mitarbeiter verwalten" style="edgeLabel;html=1;align=center;verticalAlign=middle;resizable=0;points=[];rotation=24;" vertex="1" connectable="0" parent="nMscobphGVdHo44HcNS7-11">
          <mxGeometry x="0.0669" y="1" relative="1" as="geometry">
            <mxPoint x="-4" y="8" as="offset" />
          </mxGeometry>
        </mxCell>
        <mxCell id="nMscobphGVdHo44HcNS7-14" value="Einsch채tzen" style="ellipse;whiteSpace=wrap;html=1;" vertex="1" parent="1">
          <mxGeometry x="330" y="380" width="120" height="80" as="geometry" />
        </mxCell>
        <mxCell id="nMscobphGVdHo44HcNS7-16" value="" style="endArrow=classic;html=1;rounded=0;entryX=1;entryY=0.5;entryDx=0;entryDy=0;exitX=0.5;exitY=0.5;exitDx=0;exitDy=0;exitPerimeter=0;" edge="1" parent="1" source="nMscobphGVdHo44HcNS7-8" target="nMscobphGVdHo44HcNS7-14">
          <mxGeometry width="50" height="50" relative="1" as="geometry">
            <mxPoint x="115" y="300" as="sourcePoint" />
            <mxPoint x="364" y="340" as="targetPoint" />
          </mxGeometry>
        </mxCell>
        <mxCell id="nMscobphGVdHo44HcNS7-35" value="Selbsteinsch채tzung geben" style="edgeLabel;html=1;align=center;verticalAlign=middle;resizable=0;points=[];rotation=5;" vertex="1" connectable="0" parent="nMscobphGVdHo44HcNS7-16">
          <mxGeometry x="-0.0608" y="-1" relative="1" as="geometry">
            <mxPoint x="-20" y="10" as="offset" />
          </mxGeometry>
        </mxCell>
        <mxCell id="nMscobphGVdHo44HcNS7-17" value="" style="endArrow=classic;html=1;rounded=0;entryX=0;entryY=0.5;entryDx=0;entryDy=0;exitX=0.5;exitY=0.5;exitDx=0;exitDy=0;exitPerimeter=0;" edge="1" parent="1" source="nMscobphGVdHo44HcNS7-3" target="nMscobphGVdHo44HcNS7-14">
          <mxGeometry width="50" height="50" relative="1" as="geometry">
            <mxPoint x="115" y="300" as="sourcePoint" />
            <mxPoint x="364" y="450" as="targetPoint" />
          </mxGeometry>
        </mxCell>
        <mxCell id="nMscobphGVdHo44HcNS7-41" value="Selbsteinsch채tzung geben" style="edgeLabel;html=1;align=center;verticalAlign=middle;resizable=0;points=[];" vertex="1" connectable="0" parent="nMscobphGVdHo44HcNS7-17">
          <mxGeometry x="0.3674" y="2" relative="1" as="geometry">
            <mxPoint x="-22" y="-8" as="offset" />
          </mxGeometry>
        </mxCell>
        <mxCell id="nMscobphGVdHo44HcNS7-20" value="Azure Entra ID&lt;br&gt;(Identity provider)" style="shape=umlActor;verticalLabelPosition=bottom;verticalAlign=top;html=1;outlineConnect=0;" vertex="1" parent="1">
          <mxGeometry x="680" y="250" width="30" height="60" as="geometry" />
        </mxCell>
        <mxCell id="nMscobphGVdHo44HcNS7-21" value="Login" style="ellipse;whiteSpace=wrap;html=1;" vertex="1" parent="1">
          <mxGeometry x="330" y="200" width="120" height="80" as="geometry" />
        </mxCell>
        <mxCell id="nMscobphGVdHo44HcNS7-22" value="" style="endArrow=classic;html=1;rounded=0;entryX=1;entryY=0.5;entryDx=0;entryDy=0;exitX=0.5;exitY=0.5;exitDx=0;exitDy=0;exitPerimeter=0;" edge="1" parent="1" source="nMscobphGVdHo44HcNS7-20" target="nMscobphGVdHo44HcNS7-21">
          <mxGeometry width="50" height="50" relative="1" as="geometry">
            <mxPoint x="660" y="490" as="sourcePoint" />
            <mxPoint x="710" y="440" as="targetPoint" />
          </mxGeometry>
        </mxCell>
        <mxCell id="nMscobphGVdHo44HcNS7-43" value="Identit채t anbieten" style="edgeLabel;html=1;align=center;verticalAlign=middle;resizable=0;points=[];" vertex="1" connectable="0" parent="nMscobphGVdHo44HcNS7-22">
          <mxGeometry x="-0.1179" relative="1" as="geometry">
            <mxPoint y="-2" as="offset" />
          </mxGeometry>
        </mxCell>
        <mxCell id="nMscobphGVdHo44HcNS7-24" value="" style="endArrow=classic;html=1;rounded=0;entryX=0;entryY=1;entryDx=0;entryDy=0;exitX=0.5;exitY=0.5;exitDx=0;exitDy=0;exitPerimeter=0;" edge="1" parent="1" source="nMscobphGVdHo44HcNS7-3" target="nMscobphGVdHo44HcNS7-21">
          <mxGeometry width="50" height="50" relative="1" as="geometry">
            <mxPoint x="250" y="290" as="sourcePoint" />
            <mxPoint x="300" y="240" as="targetPoint" />
          </mxGeometry>
        </mxCell>
        <mxCell id="nMscobphGVdHo44HcNS7-42" value="Einloggen" style="edgeLabel;html=1;align=center;verticalAlign=middle;resizable=0;points=[];" vertex="1" connectable="0" parent="nMscobphGVdHo44HcNS7-24">
          <mxGeometry x="0.1106" y="2" relative="1" as="geometry">
            <mxPoint as="offset" />
          </mxGeometry>
        </mxCell>
        <mxCell id="nMscobphGVdHo44HcNS7-26" value="Mitarbeiter suchen" style="ellipse;whiteSpace=wrap;html=1;" vertex="1" parent="1">
          <mxGeometry x="330" y="470" width="120" height="80" as="geometry" />
        </mxCell>
        <mxCell id="nMscobphGVdHo44HcNS7-27" value="Skills filtrieren" style="ellipse;whiteSpace=wrap;html=1;" vertex="1" parent="1">
          <mxGeometry x="330" y="560" width="120" height="80" as="geometry" />
        </mxCell>
        <mxCell id="nMscobphGVdHo44HcNS7-28" value="" style="endArrow=classic;html=1;rounded=0;entryX=1;entryY=0.5;entryDx=0;entryDy=0;exitX=0.5;exitY=0.5;exitDx=0;exitDy=0;exitPerimeter=0;" edge="1" parent="1" source="nMscobphGVdHo44HcNS7-8" target="nMscobphGVdHo44HcNS7-26">
          <mxGeometry width="50" height="50" relative="1" as="geometry">
            <mxPoint x="115" y="300" as="sourcePoint" />
            <mxPoint x="358" y="402" as="targetPoint" />
          </mxGeometry>
        </mxCell>
        <mxCell id="nMscobphGVdHo44HcNS7-37" value="Suche" style="edgeLabel;html=1;align=center;verticalAlign=middle;resizable=0;points=[];" vertex="1" connectable="0" parent="nMscobphGVdHo44HcNS7-28">
          <mxGeometry x="0.0792" y="4" relative="1" as="geometry">
            <mxPoint y="1" as="offset" />
          </mxGeometry>
        </mxCell>
        <mxCell id="nMscobphGVdHo44HcNS7-29" value="" style="endArrow=classic;html=1;rounded=0;entryX=0;entryY=0.5;entryDx=0;entryDy=0;exitX=0.5;exitY=0.5;exitDx=0;exitDy=0;exitPerimeter=0;" edge="1" parent="1" source="nMscobphGVdHo44HcNS7-3" target="nMscobphGVdHo44HcNS7-26">
          <mxGeometry width="50" height="50" relative="1" as="geometry">
            <mxPoint x="115" y="300" as="sourcePoint" />
            <mxPoint x="358" y="492" as="targetPoint" />
          </mxGeometry>
        </mxCell>
        <mxCell id="nMscobphGVdHo44HcNS7-40" value="Suche" style="edgeLabel;html=1;align=center;verticalAlign=middle;resizable=0;points=[];" vertex="1" connectable="0" parent="nMscobphGVdHo44HcNS7-29">
          <mxGeometry x="0.1505" y="1" relative="1" as="geometry">
            <mxPoint as="offset" />
          </mxGeometry>
        </mxCell>
        <mxCell id="nMscobphGVdHo44HcNS7-30" value="" style="endArrow=classic;html=1;rounded=0;entryX=1;entryY=1;entryDx=0;entryDy=0;exitX=0.5;exitY=0.5;exitDx=0;exitDy=0;exitPerimeter=0;" edge="1" parent="1" source="nMscobphGVdHo44HcNS7-8" target="nMscobphGVdHo44HcNS7-21">
          <mxGeometry width="50" height="50" relative="1" as="geometry">
            <mxPoint x="705" y="290" as="sourcePoint" />
            <mxPoint x="460" y="250" as="targetPoint" />
          </mxGeometry>
        </mxCell>
        <mxCell id="nMscobphGVdHo44HcNS7-34" value="Einloggen" style="edgeLabel;html=1;align=center;verticalAlign=middle;resizable=0;points=[];rotation=35;" vertex="1" connectable="0" parent="nMscobphGVdHo44HcNS7-30">
          <mxGeometry x="-0.1264" y="2" relative="1" as="geometry">
            <mxPoint x="11" y="-7" as="offset" />
          </mxGeometry>
        </mxCell>
        <mxCell id="nMscobphGVdHo44HcNS7-31" value="" style="endArrow=classic;html=1;rounded=0;entryX=0;entryY=0.5;entryDx=0;entryDy=0;exitX=0.5;exitY=0.5;exitDx=0;exitDy=0;exitPerimeter=0;" edge="1" parent="1" source="nMscobphGVdHo44HcNS7-3" target="nMscobphGVdHo44HcNS7-27">
          <mxGeometry width="50" height="50" relative="1" as="geometry">
            <mxPoint x="125" y="430" as="sourcePoint" />
            <mxPoint x="358" y="458" as="targetPoint" />
          </mxGeometry>
        </mxCell>
        <mxCell id="nMscobphGVdHo44HcNS7-39" value="Filtrieren" style="edgeLabel;html=1;align=center;verticalAlign=middle;resizable=0;points=[];" vertex="1" connectable="0" parent="nMscobphGVdHo44HcNS7-31">
          <mxGeometry x="-0.0255" y="-4" relative="1" as="geometry">
            <mxPoint as="offset" />
          </mxGeometry>
        </mxCell>
        <mxCell id="nMscobphGVdHo44HcNS7-32" value="" style="endArrow=classic;html=1;rounded=0;entryX=1;entryY=0.5;entryDx=0;entryDy=0;exitX=0.5;exitY=0.5;exitDx=0;exitDy=0;exitPerimeter=0;" edge="1" parent="1" source="nMscobphGVdHo44HcNS7-8" target="nMscobphGVdHo44HcNS7-27">
          <mxGeometry width="50" height="50" relative="1" as="geometry">
            <mxPoint x="705" y="450" as="sourcePoint" />
            <mxPoint x="460" y="520" as="targetPoint" />
          </mxGeometry>
        </mxCell>
        <mxCell id="nMscobphGVdHo44HcNS7-38" value="Filtrieren" style="edgeLabel;html=1;align=center;verticalAlign=middle;resizable=0;points=[];" vertex="1" connectable="0" parent="nMscobphGVdHo44HcNS7-32">
          <mxGeometry x="-0.0086" y="1" relative="1" as="geometry">
            <mxPoint as="offset" />
          </mxGeometry>
        </mxCell>
      </root>
    </mxGraphModel>
  </diagram>
</mxfile>
